<svg width="1000" height="1000" viewBox="0 0 1000 1000" xmlns="http://www.w3.org/2000/svg"><defs/><path fill="#ffffff" transform="matrix(0.5102629084701198 0 0 0.5102629084701198 6.028532865569514 -17.04047494725509)" d="M 759.64181028236 1007.42907738439 C 757.14181028236 996.92907738439 751.24181028236 990.42907738439 742.24181028236 986.22907738439 C 739.94181028236 985.12907738439 737.14181028236 984.12907738439 734.04181028236 983.32907738439 C 710.44181028236 968.22907738439 684.74181028236 971.92907738439 668.94181028236 981.32907738439 C 655.84181028236 989.12907738439 647.54181028236 1014.42907738439 646.54181028236 1022.82907738439 C 646.54181028236 1022.82907738439 668.24181028236 1031.02907738439 673.14181028236 1036.22907738439 C 675.14181028236 1038.32907738439 676.24181028236 1040.42907738439 676.24181028236 1043.12907738439 L 676.24181028236 1060.72907738439 C 676.24181028236 1062.52907738439 674.14181028236 1067.82907738439 669.34181028236 1068.52907738439 C 669.34181028236 1068.52907738439 669.44181028236 1068.52907738439 669.44181028236 1068.62907738439 C 667.14181028236 1069.22907738439 664.74181028236 1069.42907738439 662.14181028236 1069.42907738439 L 402.64181028236 1069.52907738439 C 395.44181028236 1069.52907738439 388.94181028236 1070.32907738439 379.24181028236 1068.62907738439 C 374.44181028236 1067.92907738439 372.34181028236 1062.62907738439 372.34181028236 1060.82907738439 C 372.34181028236 1059.02907738439 372.34181028236 1045.92907738439 372.34181028236 1043.22907738439 C 372.34181028236 1040.52907738439 373.34181028236 1039.72907738439 374.54181028236 1038.32907738439 L 390.14181028236 1024.62907738439 C 387.54181028236 968.52907738439 371.24181028236 952.82907738439 352.74181028236 943.92907738439 C 334.24181028236 935.12907738439 311.44181028236 938.82907738439 300.24181028236 944.02907738439 C 291.24181028236 948.32907738439 285.34181028236 954.72907738439 282.84181028236 965.22907738439 C 280.84181028236 973.72907738439 283.24181028236 982.42907738439 289.34181028236 988.62907738439 C 295.84181028236 995.32907738439 305.74181028236 995.92907738439 311.74181028236 994.12907738439 C 318.64181028236 992.02907738439 322.64181028236 985.62907738439 322.54181028236 980.52907738439 C 328.54181028236 984.32907738439 338.24181028236 993.42907738439 339.04181028236 1012.72907738439 C 339.04181028236 1012.72907738439 333.44181028236 1013.22907738439 332.64181028236 1019.22907738439 C 332.64181028236 1019.22907738439 339.34181028236 1019.22907738439 338.34181028236 1026.02907738439 C 337.34181028236 1032.82907738439 332.64181028236 1044.32907738439 332.64181028236 1059.72907738439 C 332.64181028236 1075.12907738439 344.74181028236 1077.82907738439 344.74181028236 1077.82907738439 C 344.74181028236 1077.82907738439 331.94181028236 1091.32907738439 347.74181028236 1104.42907738439 C 359.34181028236 1113.92907738439 357.14181028236 1117.22907738439 357.14181028236 1117.22907738439 C 357.14181028236 1117.22907738439 347.84181028236 1117.32907738439 347.84181028236 1127.32907738439 C 347.84181028236 1137.32907738439 359.14181028236 1137.02907738439 359.14181028236 1137.02907738439 C 359.14181028236 1137.02907738439 372.14181028236 1137.82907738439 372.14181028236 1122.12907738439 C 372.14181028236 1106.42907738439 368.64181028236 1098.12907738439 368.64181028236 1098.12907738439 L 375.44181028236 1098.12907738439 C 374.74181028236 1095.62907738439 374.84181028236 1092.82907738439 375.74181028236 1090.32907738439 C 376.74181028236 1087.62907738439 379.74181028236 1083.12907738439 387.84181028236 1082.32907738439 C 388.54181028236 1082.22907738439 389.34181028236 1082.22907738439 390.04181028236 1082.22907738439 C 399.14181028236 1082.22907738439 409.04181028236 1087.12907738439 419.54181028236 1092.22907738439 C 431.04181028236 1097.92907738439 442.94181028236 1103.82907738439 454.94181028236 1103.82907738439 C 461.44181028236 1103.82907738439 465.94181028236 1101.82907738439 467.54181028236 1098.22907738439 C 469.94181028236 1091.12907738439 462.14181028236 1084.52907738439 462.14181028236 1084.52907738439 C 462.14181028236 1084.52907738439 471.14181028236 1082.82907738439 475.94181028236 1090.92907738439 C 476.34181028236 1091.62907738439 476.84181028236 1092.52907738439 477.24181028236 1093.52907738439 C 479.24181028236 1091.92907738439 481.84181028236 1091.12907738439 484.84181028236 1091.12907738439 C 487.84181028236 1091.12907738439 490.54181028236 1091.92907738439 492.24181028236 1092.52907738439 C 495.64181028236 1093.82907738439 498.54181028236 1095.72907738439 501.34181028236 1097.72907738439 C 502.74181028236 1098.62907738439 504.04181028236 1099.52907738439 505.34181028236 1100.32907738439 C 509.54181028236 1102.82907738439 514.34181028236 1104.62907738439 520.64181028236 1106.12907738439 C 521.54181028236 1105.02907738439 522.94181028236 1104.42907738439 524.44181028236 1104.42907738439 C 525.94181028236 1104.42907738439 527.34181028236 1105.12907738439 528.24181028236 1106.12907738439 C 534.64181028236 1104.62907738439 539.34181028236 1102.82907738439 543.54181028236 1100.32907738439 C 544.84181028236 1099.52907738439 546.14181028236 1098.62907738439 547.54181028236 1097.72907738439 C 550.34181028236 1095.82907738439 553.24181028236 1093.82907738439 556.64181028236 1092.52907738439 C 558.34181028236 1091.82907738439 561.04181028236 1091.12907738439 564.04181028236 1091.12907738439 C 567.04181028236 1091.12907738439 569.64181028236 1091.92907738439 571.64181028236 1093.52907738439 C 572.04181028236 1092.52907738439 572.54181028236 1091.62907738439 572.94181028236 1090.92907738439 C 578.84181028236 1082.22907738439 586.74181028236 1084.52907738439 586.74181028236 1084.52907738439 C 586.74181028236 1084.52907738439 578.64181028236 1091.12907738439 581.34181028236 1098.22907738439 C 582.94181028236 1101.82907738439 587.44181028236 1103.82907738439 593.94181028236 1103.82907738439 C 605.84181028236 1103.82907738439 617.84181028236 1097.92907738439 629.34181028236 1092.22907738439 C 639.84181028236 1087.02907738439 649.64181028236 1082.22907738439 658.84181028236 1082.22907738439 C 659.64181028236 1082.22907738439 660.34181028236 1082.22907738439 661.04181028236 1082.32907738439 C 669.14181028236 1083.12907738439 672.14181028236 1087.62907738439 673.14181028236 1090.32907738439 C 674.14181028236 1092.82907738439 674.14181028236 1095.62907738439 673.44181028236 1098.12907738439 L 680.14181028236 1098.12907738439 C 680.14181028236 1098.12907738439 676.64181028236 1106.42907738439 676.64181028236 1122.12907738439 C 676.64181028236 1137.82907738439 689.64181028236 1137.02907738439 689.64181028236 1137.02907738439 C 689.64181028236 1137.02907738439 700.94181028236 1137.32907738439 700.94181028236 1127.32907738439 C 700.94181028236 1117.32907738439 691.64181028236 1117.22907738439 691.64181028236 1117.22907738439 C 691.64181028236 1117.22907738439 689.44181028236 1113.92907738439 701.04181028236 1104.42907738439 C 706.84181028236 1099.62907738439 711.24181028236 1093.52907738439 711.24181028236 1085.72907738439 C 711.24181028236 1075.32907738439 706.14181028236 1065.22907738439 706.14181028236 1059.92907738439 C 706.14181028236 1054.62907738439 712.04181028236 1055.22907738439 712.04181028236 1055.22907738439 C 711.24181028236 1048.92907738439 704.44181028236 1049.12907738439 704.44181028236 1049.12907738439 C 704.44181028236 1037.92907738439 710.44181028236 1027.62907738439 719.74181028236 1022.42907738439 C 719.34181028236 1027.52907738439 723.44181028236 1034.22907738439 730.44181028236 1036.32907738439 C 736.44181028236 1038.12907738439 746.34181028236 1037.52907738439 752.84181028236 1030.82907738439 C 759.24181028236 1024.62907738439 761.64181028236 1015.92907738439 759.64181028236 1007.42907738439 Z M 354.34181028236 989.42907738439 C 347.84181028236 962.02907738439 323.24181028236 953.82907738439 309.74181028236 955.02907738439 C 296.24181028236 956.32907738439 289.34181028236 969.02907738439 295.44181028236 978.02907738439 C 301.54181028236 987.02907738439 313.84181028236 982.52907738439 317.94181028236 978.02907738439 C 317.94181028236 978.02907738439 319.74181028236 978.62907738439 322.34181028236 980.22907738439 C 319.24181028236 988.82907738439 308.74181028236 993.32907738439 299.34181028236 990.22907738439 C 289.04181028236 986.82907738439 283.84181028236 975.62907738439 286.14181028236 965.92907738439 C 288.44181028236 956.12907738439 295.24181028236 950.52907738439 304.14181028236 947.52907738439 C 329.14181028236 939.02907738439 349.24181028236 955.82907738439 356.14181028236 966.32907738439 C 368.94181028236 985.92907738439 368.14181028236 1004.52907738439 373.44181028236 1032.12907738439 C 371.14181028236 1035.32907738439 368.84181028236 1039.12907738439 368.84181028236 1043.22907738439 C 368.84181028236 1048.62907738439 368.74181028236 1054.62907738439 368.64181028236 1060.22907738439 C 359.14181028236 1044.62907738439 359.44181028236 1010.82907738439 354.34181028236 989.42907738439 Z M 743.24181028236 1032.52907738439 C 733.84181028236 1035.62907738439 723.14181028236 1031.02907738439 720.14181028236 1022.22907738439 C 721.54181028236 1021.42907738439 723.04181028236 1020.82907738439 724.64181028236 1020.22907738439 C 728.74181028236 1024.72907738439 741.04181028236 1029.22907738439 747.14181028236 1020.22907738439 C 753.24181028236 1011.22907738439 746.34181028236 998.52907738439 732.84181028236 997.32907738439 C 722.14181028236 996.32907738439 704.84181028236 1001.42907738439 694.44181028236 1016.92907738439 C 686.24181028236 1029.12907738439 683.44181028236 1052.32907738439 681.84181028236 1056.52907738439 C 681.34181028236 1057.92907738439 680.74181028236 1059.22907738439 680.04181028236 1060.32907738439 C 680.04181028236 1054.72907738439 679.84181028236 1048.62907738439 679.84181028236 1043.22907738439 C 679.84181028236 1039.52907738439 677.94181028236 1036.02907738439 675.94181028236 1033.02907738439 C 676.04181028236 1033.02907738439 676.14181028236 1033.12907738439 676.14181028236 1033.12907738439 C 678.14181028236 1024.62907738439 681.14181028236 1016.62907738439 686.44181028236 1008.52907738439 C 693.34181028236 998.02907738439 713.44181028236 981.22907738439 738.44181028236 989.72907738439 C 747.34181028236 992.72907738439 754.14181028236 998.32907738439 756.44181028236 1008.12907738439 C 758.74181028236 1017.92907738439 753.54181028236 1029.12907738439 743.24181028236 1032.52907738439 Z"/><path fill="#ffffff" transform="matrix(0.5102629084701198 0 0 0.5102629084701198 6.028532865569514 -17.04047494725509)" d="M 389.14181028236 1066.32907738439 L 531.84181028236 1066.32907738439 L 534.54181028236 1066.32907738439 L 659.64181028236 1066.32907738439 C 664.14181028236 1066.32907738439 672.34181028236 1066.32907738439 672.34181028236 1061.42907738439 C 672.34181028236 1056.52907738439 672.74181028236 1043.72907738439 672.34181028236 1042.02907738439 C 671.74181028236 1039.42907738439 666.64181028236 1036.02907738439 666.64181028236 1036.02907738439 C 666.64181028236 1036.02907738439 666.24181028236 1039.32907738439 657.64181028236 1039.32907738439 L 534.64181028236 1039.32907738439 L 531.84181028236 1039.32907738439 L 391.14181028236 1039.32907738439 C 382.54181028236 1039.32907738439 382.14181028236 1036.02907738439 382.14181028236 1036.02907738439 C 382.14181028236 1036.02907738439 376.94181028236 1039.32907738439 376.44181028236 1042.02907738439 C 376.04181028236 1043.62907738439 376.44181028236 1056.42907738439 376.44181028236 1061.42907738439 C 376.44181028236 1066.42907738439 384.64181028236 1066.32907738439 389.14181028236 1066.32907738439 Z"/><path fill="#ffffff" transform="matrix(0.5102629084701198 0 0 0.5102629084701198 6.028532865569514 -17.04047494725509)" d="M 564.24181028236 1093.52907738439 C 561.94181028236 1093.52907738439 559.64181028236 1094.02907738439 557.64181028236 1094.82907738439 C 553.04181028236 1096.62907738439 549.14181028236 1099.92907738439 544.94181028236 1102.42907738439 C 539.44181028236 1105.72907738439 533.34181028236 1107.62907738439 527.14181028236 1108.92907738439 C 526.94181028236 1107.72907738439 525.84181028236 1106.82907738439 524.64181028236 1106.82907738439 C 523.34181028236 1106.82907738439 522.34181028236 1107.72907738439 522.14181028236 1108.92907738439 C 515.94181028236 1107.52907738439 509.84181028236 1105.72907738439 504.34181028236 1102.42907738439 C 500.14181028236 1099.92907738439 496.24181028236 1096.62907738439 491.64181028236 1094.82907738439 C 489.64181028236 1094.12907738439 487.34181028236 1093.52907738439 485.04181028236 1093.52907738439 C 482.64181028236 1093.52907738439 480.24181028236 1094.12907738439 478.44181028236 1095.82907738439 C 475.34181028236 1098.72907738439 475.04181028236 1104.92907738439 478.84181028236 1107.42907738439 C 479.74181028236 1108.02907738439 480.74181028236 1108.32907738439 481.74181028236 1108.32907738439 C 482.94181028236 1108.32907738439 484.04181028236 1107.92907738439 484.94181028236 1106.92907738439 C 486.14181028236 1105.52907738439 486.44181028236 1101.92907738439 483.84181028236 1101.92907738439 C 484.14181028236 1102.62907738439 484.34181028236 1103.32907738439 484.24181028236 1104.02907738439 C 484.14181028236 1105.22907738439 483.24181028236 1105.82907738439 482.44181028236 1105.82907738439 C 481.54181028236 1105.82907738439 480.54181028236 1105.22907738439 480.14181028236 1104.12907738439 C 479.54181028236 1102.22907738439 480.34181028236 1099.72907738439 482.34181028236 1099.12907738439 C 482.84181028236 1099.02907738439 483.34181028236 1098.92907738439 483.94181028236 1098.92907738439 C 485.54181028236 1098.92907738439 487.34181028236 1099.42907738439 488.64181028236 1099.92907738439 C 490.94181028236 1100.72907738439 493.14181028236 1102.02907738439 495.24181028236 1103.22907738439 C 499.64181028236 1105.82907738439 504.14181028236 1108.22907738439 509.24181028236 1109.32907738439 C 511.74181028236 1109.92907738439 514.44181028236 1110.12907738439 517.04181028236 1110.12907738439 C 518.74181028236 1110.12907738439 520.44181028236 1110.02907738439 522.14181028236 1109.82907738439 C 522.34181028236 1111.02907738439 523.44181028236 1112.02907738439 524.74181028236 1112.02907738439 C 526.04181028236 1112.02907738439 527.14181028236 1111.12907738439 527.34181028236 1109.82907738439 C 529.04181028236 1110.02907738439 530.74181028236 1110.12907738439 532.44181028236 1110.12907738439 C 535.04181028236 1110.12907738439 537.64181028236 1109.82907738439 540.24181028236 1109.32907738439 C 545.34181028236 1108.22907738439 549.84181028236 1105.82907738439 554.24181028236 1103.22907738439 C 556.34181028236 1101.92907738439 558.44181028236 1100.72907738439 560.84181028236 1099.92907738439 C 562.24181028236 1099.42907738439 563.94181028236 1098.92907738439 565.54181028236 1098.92907738439 C 566.14181028236 1098.92907738439 566.64181028236 1099.02907738439 567.14181028236 1099.12907738439 C 569.14181028236 1099.72907738439 570.04181028236 1102.22907738439 569.34181028236 1104.12907738439 C 568.94181028236 1105.22907738439 567.94181028236 1105.82907738439 567.04181028236 1105.82907738439 C 566.14181028236 1105.82907738439 565.34181028236 1105.32907738439 565.24181028236 1104.02907738439 C 565.14181028236 1103.32907738439 565.34181028236 1102.62907738439 565.64181028236 1101.92907738439 C 563.04181028236 1101.92907738439 563.34181028236 1105.52907738439 564.54181028236 1106.92907738439 C 565.34181028236 1107.92907738439 566.54181028236 1108.32907738439 567.74181028236 1108.32907738439 C 568.74181028236 1108.32907738439 569.74181028236 1108.02907738439 570.64181028236 1107.42907738439 C 574.44181028236 1104.92907738439 574.14181028236 1098.72907738439 571.04181028236 1095.82907738439 C 569.04181028236 1094.12907738439 566.64181028236 1093.52907738439 564.24181028236 1093.52907738439 Z"/><path fill="#ffffff" transform="matrix(0.5102629084701198 0 0 0.5102629084701198 6.028532865569514 -17.04047494725509)" d="M 467.64181028236 1086.82907738439 C 467.64181028236 1086.82907738439 467.54181028236 1086.82907738439 467.64181028236 1086.82907738439 C 473.64181028236 1093.72907738439 471.94181028236 1106.22907738439 455.04181028236 1106.22907738439 C 431.54181028236 1106.22907738439 408.44181028236 1084.62907738439 390.14181028236 1084.62907738439 C 389.44181028236 1084.62907738439 388.84181028236 1084.62907738439 388.14181028236 1084.72907738439 C 376.14181028236 1085.82907738439 375.84181028236 1096.52907738439 379.74181028236 1100.82907738439 C 380.94181028236 1102.12907738439 382.54181028236 1102.72907738439 384.24181028236 1102.72907738439 C 386.74181028236 1102.72907738439 389.14181028236 1101.32907738439 390.04181028236 1098.52907738439 C 391.34181028236 1094.52907738439 388.84181028236 1093.02907738439 387.54181028236 1092.32907738439 C 387.04181028236 1092.02907738439 386.44181028236 1091.92907738439 385.94181028236 1091.92907738439 C 384.64181028236 1091.92907738439 383.44181028236 1092.62907738439 383.04181028236 1093.52907738439 C 383.04181028236 1093.52907738439 382.24181028236 1088.02907738439 391.54181028236 1088.02907738439 C 403.04181028236 1088.02907738439 426.74181028236 1105.72907738439 445.74181028236 1111.62907738439 C 450.04181028236 1112.92907738439 454.54181028236 1113.72907738439 458.84181028236 1113.72907738439 C 465.54181028236 1113.72907738439 471.44181028236 1111.72907738439 474.14181028236 1106.52907738439 C 480.04181028236 1095.52907738439 470.64181028236 1086.82907738439 467.64181028236 1086.82907738439 Z"/><path fill="#ffffff" transform="matrix(0.5102629084701198 0 0 0.5102629084701198 6.028532865569514 -17.04047494725509)" d="M 661.04181028236 1084.72907738439 C 660.34181028236 1084.62907738439 659.74181028236 1084.62907738439 659.04181028236 1084.62907738439 C 640.74181028236 1084.62907738439 617.74181028236 1106.22907738439 594.14181028236 1106.22907738439 C 577.24181028236 1106.22907738439 575.54181028236 1093.72907738439 581.64181028236 1086.82907738439 C 581.64181028236 1086.82907738439 581.64181028236 1086.82907738439 581.64181028236 1086.82907738439 C 578.64181028236 1086.82907738439 569.24181028236 1095.52907738439 575.04181028236 1106.52907738439 C 577.74181028236 1111.72907738439 583.64181028236 1113.72907738439 590.34181028236 1113.72907738439 C 594.54181028236 1113.72907738439 599.14181028236 1112.92907738439 603.44181028236 1111.62907738439 C 622.44181028236 1105.72907738439 646.14181028236 1088.02907738439 657.64181028236 1088.02907738439 C 666.94181028236 1088.02907738439 666.14181028236 1093.52907738439 666.14181028236 1093.52907738439 C 665.74181028236 1092.62907738439 664.54181028236 1091.92907738439 663.24181028236 1091.92907738439 C 662.74181028236 1091.92907738439 662.14181028236 1092.02907738439 661.64181028236 1092.32907738439 C 660.44181028236 1092.92907738439 657.94181028236 1094.42907738439 659.14181028236 1098.52907738439 C 660.04181028236 1101.32907738439 662.44181028236 1102.72907738439 664.94181028236 1102.72907738439 C 666.64181028236 1102.72907738439 668.24181028236 1102.12907738439 669.44181028236 1100.82907738439 C 673.34181028236 1096.52907738439 673.04181028236 1085.82907738439 661.04181028236 1084.72907738439 Z"/><path fill="#ffffff" transform="matrix(0.5102629084701198 0 0 0.5102629084701198 6.028532865569514 -17.04047494725509)" d="M 379.04181028236 960.92907738439 C 393.94181028236 984.72907738439 394.24181028236 1022.72907738439 394.24181028236 1022.72907738439 L 642.54181028236 1022.72907738439 C 654.54181028236 960.32907738439 700.24181028236 969.32907738439 700.24181028236 969.32907738439 C 698.34181028236 961.02907738439 691.54181028236 946.62907738439 668.04181028236 946.62907738439 C 636.14181028236 946.62907738439 624.04181028236 972.12907738439 608.34181028236 974.12907738439 C 592.74181028236 976.12907738439 588.84181028236 957.32907738439 581.04181028236 955.62907738439 C 581.64181028236 962.92907738439 574.54181028236 965.72907738439 574.54181028236 965.72907738439 C 581.04181028236 955.62907738439 571.94181028236 944.72907738439 563.04181028236 948.82907738439 C 555.44181028236 952.32907738439 558.54181028236 960.92907738439 561.64181028236 962.42907738439 C 561.64181028236 962.42907738439 555.94181028236 972.82907738439 522.14181028236 965.72907738439 C 488.34181028236 958.62907738439 487.74181028236 935.22907738439 487.74181028236 935.22907738439 C 487.74181028236 935.22907738439 497.24181028236 934.92907738439 497.24181028236 927.02907738439 C 497.24181028236 919.12907738439 488.24181028236 918.52907738439 488.24181028236 918.52907738439 C 493.94181028236 913.82907738439 490.84181028236 906.52907738439 490.24181028236 905.12907738439 C 490.54181028236 905.92907738439 490.64181028236 908.52907738439 481.94181028236 911.72907738439 C 471.54181028236 915.52907738439 472.44181028236 929.42907738439 472.44181028236 929.42907738439 C 472.44181028236 929.42907738439 436.64181028236 889.52907738439 390.24181028236 889.52907738439 C 355.14181028236 889.52907738439 339.94181028236 919.62907738439 336.74181028236 933.72907738439 C 336.74181028236 933.82907738439 363.24181028236 935.72907738439 379.04181028236 960.92907738439 Z M 599.14181028236 995.92907738439 C 599.14181028236 995.92907738439 603.34181028236 995.32907738439 608.74181028236 995.12907738439 C 609.04181028236 994.42907738439 609.64181028236 993.82907738439 610.34181028236 993.52907738439 C 610.54181028236 988.02907738439 611.14181028236 983.92907738439 611.14181028236 983.92907738439 L 611.94181028236 983.92907738439 C 611.94181028236 983.92907738439 612.54181028236 988.12907738439 612.74181028236 993.52907738439 C 613.44181028236 993.82907738439 614.04181028236 994.42907738439 614.34181028236 995.12907738439 C 619.84181028236 995.32907738439 623.94181028236 995.92907738439 623.94181028236 995.92907738439 L 623.94181028236 996.72907738439 C 623.94181028236 996.72907738439 619.74181028236 997.32907738439 614.34181028236 997.52907738439 C 614.04181028236 998.22907738439 613.44181028236 998.82907738439 612.74181028236 999.12907738439 C 612.54181028236 1004.62907738439 611.94181028236 1008.72907738439 611.94181028236 1008.72907738439 L 611.14181028236 1008.72907738439 C 611.14181028236 1008.72907738439 610.54181028236 1004.52907738439 610.34181028236 999.12907738439 C 609.64181028236 998.82907738439 609.04181028236 998.22907738439 608.74181028236 997.52907738439 C 603.24181028236 997.32907738439 599.14181028236 996.72907738439 599.14181028236 996.72907738439 L 599.14181028236 995.92907738439 Z M 540.04181028236 995.92907738439 C 540.04181028236 995.92907738439 544.24181028236 995.32907738439 549.64181028236 995.12907738439 C 549.94181028236 994.42907738439 550.54181028236 993.82907738439 551.24181028236 993.52907738439 C 551.44181028236 988.02907738439 552.04181028236 983.92907738439 552.04181028236 983.92907738439 L 552.84181028236 983.92907738439 C 552.84181028236 983.92907738439 553.44181028236 988.12907738439 553.64181028236 993.52907738439 C 554.34181028236 993.82907738439 554.94181028236 994.42907738439 555.24181028236 995.12907738439 C 560.74181028236 995.32907738439 564.84181028236 995.92907738439 564.84181028236 995.92907738439 L 564.84181028236 996.72907738439 C 564.84181028236 996.72907738439 560.64181028236 997.32907738439 555.24181028236 997.52907738439 C 554.94181028236 998.22907738439 554.34181028236 998.82907738439 553.64181028236 999.12907738439 C 553.44181028236 1004.62907738439 552.84181028236 1008.72907738439 552.84181028236 1008.72907738439 L 552.04181028236 1008.72907738439 C 552.04181028236 1008.72907738439 551.44181028236 1004.52907738439 551.24181028236 999.12907738439 C 550.54181028236 998.82907738439 549.94181028236 998.22907738439 549.64181028236 997.52907738439 C 544.14181028236 997.32907738439 540.04181028236 996.72907738439 540.04181028236 996.72907738439 L 540.04181028236 995.92907738439 Z M 480.94181028236 995.92907738439 C 480.94181028236 995.92907738439 485.14181028236 995.32907738439 490.54181028236 995.12907738439 C 490.84181028236 994.42907738439 491.44181028236 993.82907738439 492.14181028236 993.52907738439 C 492.34181028236 988.02907738439 492.94181028236 983.92907738439 492.94181028236 983.92907738439 L 493.74181028236 983.92907738439 C 493.74181028236 983.92907738439 494.34181028236 988.12907738439 494.54181028236 993.52907738439 C 495.24181028236 993.82907738439 495.84181028236 994.42907738439 496.14181028236 995.12907738439 C 501.64181028236 995.32907738439 505.74181028236 995.92907738439 505.74181028236 995.92907738439 L 505.74181028236 996.72907738439 C 505.74181028236 996.72907738439 501.54181028236 997.32907738439 496.14181028236 997.52907738439 C 495.84181028236 998.22907738439 495.24181028236 998.82907738439 494.54181028236 999.12907738439 C 494.34181028236 1004.62907738439 493.74181028236 1008.72907738439 493.74181028236 1008.72907738439 L 492.94181028236 1008.72907738439 C 492.94181028236 1008.72907738439 492.34181028236 1004.52907738439 492.14181028236 999.12907738439 C 491.44181028236 998.82907738439 490.84181028236 998.22907738439 490.54181028236 997.52907738439 C 485.04181028236 997.32907738439 480.94181028236 996.72907738439 480.94181028236 996.72907738439 L 480.94181028236 995.92907738439 Z M 447.94181028236 957.02907738439 C 447.94181028236 957.02907738439 452.14181028236 956.42907738439 457.54181028236 956.22907738439 C 457.84181028236 955.52907738439 458.44181028236 954.92907738439 459.14181028236 954.62907738439 C 459.34181028236 949.12907738439 459.94181028236 945.02907738439 459.94181028236 945.02907738439 L 460.74181028236 945.02907738439 C 460.74181028236 945.02907738439 461.34181028236 949.22907738439 461.54181028236 954.62907738439 C 462.24181028236 954.92907738439 462.84181028236 955.52907738439 463.14181028236 956.22907738439 C 468.64181028236 956.42907738439 472.74181028236 957.02907738439 472.74181028236 957.02907738439 L 472.74181028236 957.82907738439 C 472.74181028236 957.82907738439 468.54181028236 958.42907738439 463.14181028236 958.62907738439 C 462.84181028236 959.32907738439 462.24181028236 959.92907738439 461.54181028236 960.22907738439 C 461.34181028236 965.72907738439 460.74181028236 969.82907738439 460.74181028236 969.82907738439 L 459.94181028236 969.82907738439 C 459.94181028236 969.82907738439 459.34181028236 965.62907738439 459.14181028236 960.22907738439 C 458.44181028236 959.92907738439 457.84181028236 959.32907738439 457.54181028236 958.62907738439 C 452.04181028236 958.42907738439 447.94181028236 957.82907738439 447.94181028236 957.82907738439 L 447.94181028236 957.02907738439 Z M 421.94181028236 914.12907738439 C 421.94181028236 914.12907738439 426.14181028236 913.52907738439 431.54181028236 913.32907738439 C 431.84181028236 912.62907738439 432.44181028236 912.02907738439 433.14181028236 911.72907738439 C 433.34181028236 906.22907738439 433.94181028236 902.12907738439 433.94181028236 902.12907738439 L 434.74181028236 902.12907738439 C 434.74181028236 902.12907738439 435.34181028236 906.32907738439 435.54181028236 911.72907738439 C 436.24181028236 912.02907738439 436.84181028236 912.62907738439 437.14181028236 913.32907738439 C 442.64181028236 913.52907738439 446.74181028236 914.12907738439 446.74181028236 914.12907738439 L 446.74181028236 914.92907738439 C 446.74181028236 914.92907738439 442.54181028236 915.52907738439 437.14181028236 915.72907738439 C 436.84181028236 916.42907738439 436.24181028236 917.02907738439 435.54181028236 917.32907738439 C 435.34181028236 922.82907738439 434.74181028236 926.92907738439 434.74181028236 926.92907738439 L 433.94181028236 926.92907738439 C 433.94181028236 926.92907738439 433.34181028236 922.72907738439 433.14181028236 917.32907738439 C 432.44181028236 917.02907738439 431.84181028236 916.42907738439 431.54181028236 915.72907738439 C 426.04181028236 915.52907738439 421.94181028236 914.92907738439 421.94181028236 914.92907738439 L 421.94181028236 914.12907738439 Z M 421.94181028236 995.92907738439 C 421.94181028236 995.92907738439 426.14181028236 995.32907738439 431.54181028236 995.12907738439 C 431.84181028236 994.42907738439 432.44181028236 993.82907738439 433.14181028236 993.52907738439 C 433.34181028236 988.02907738439 433.94181028236 983.92907738439 433.94181028236 983.92907738439 L 434.74181028236 983.92907738439 C 434.74181028236 983.92907738439 435.34181028236 988.12907738439 435.54181028236 993.52907738439 C 436.24181028236 993.82907738439 436.84181028236 994.42907738439 437.14181028236 995.12907738439 C 442.64181028236 995.32907738439 446.74181028236 995.92907738439 446.74181028236 995.92907738439 L 446.74181028236 996.72907738439 C 446.74181028236 996.72907738439 442.54181028236 997.32907738439 437.14181028236 997.52907738439 C 436.84181028236 998.22907738439 436.24181028236 998.82907738439 435.54181028236 999.12907738439 C 435.34181028236 1004.62907738439 434.74181028236 1008.72907738439 434.74181028236 1008.72907738439 L 433.94181028236 1008.72907738439 C 433.94181028236 1008.72907738439 433.34181028236 1004.52907738439 433.14181028236 999.12907738439 C 432.44181028236 998.82907738439 431.84181028236 998.22907738439 431.54181028236 997.52907738439 C 426.04181028236 997.32907738439 421.94181028236 996.72907738439 421.94181028236 996.72907738439 L 421.94181028236 995.92907738439 Z M 388.84181028236 957.02907738439 C 388.84181028236 957.02907738439 393.04181028236 956.42907738439 398.44181028236 956.22907738439 C 398.74181028236 955.52907738439 399.34181028236 954.92907738439 400.04181028236 954.62907738439 C 400.24181028236 949.12907738439 400.84181028236 945.02907738439 400.84181028236 945.02907738439 L 401.64181028236 945.02907738439 C 401.64181028236 945.02907738439 402.24181028236 949.22907738439 402.44181028236 954.62907738439 C 403.14181028236 954.92907738439 403.74181028236 955.52907738439 404.04181028236 956.22907738439 C 409.54181028236 956.42907738439 413.64181028236 957.02907738439 413.64181028236 957.02907738439 L 413.64181028236 957.82907738439 C 413.64181028236 957.82907738439 409.44181028236 958.42907738439 404.04181028236 958.62907738439 C 403.74181028236 959.32907738439 403.14181028236 959.92907738439 402.44181028236 960.22907738439 C 402.24181028236 965.72907738439 401.64181028236 969.82907738439 401.64181028236 969.82907738439 L 400.84181028236 969.82907738439 C 400.84181028236 969.82907738439 400.24181028236 965.62907738439 400.04181028236 960.22907738439 C 399.34181028236 959.92907738439 398.74181028236 959.32907738439 398.44181028236 958.62907738439 C 392.94181028236 958.42907738439 388.84181028236 957.82907738439 388.84181028236 957.82907738439 L 388.84181028236 957.02907738439 Z M 362.84181028236 914.12907738439 C 362.84181028236 914.12907738439 367.04181028236 913.52907738439 372.44181028236 913.32907738439 C 372.74181028236 912.62907738439 373.34181028236 912.02907738439 374.04181028236 911.72907738439 C 374.24181028236 906.22907738439 374.84181028236 902.12907738439 374.84181028236 902.12907738439 L 375.64181028236 902.12907738439 C 375.64181028236 902.12907738439 376.24181028236 906.32907738439 376.44181028236 911.72907738439 C 377.14181028236 912.02907738439 377.74181028236 912.62907738439 378.04181028236 913.32907738439 C 383.54181028236 913.52907738439 387.64181028236 914.12907738439 387.64181028236 914.12907738439 L 387.64181028236 914.92907738439 C 387.64181028236 914.92907738439 383.44181028236 915.52907738439 378.04181028236 915.72907738439 C 377.74181028236 916.42907738439 377.14181028236 917.02907738439 376.44181028236 917.32907738439 C 376.24181028236 922.82907738439 375.64181028236 926.92907738439 375.64181028236 926.92907738439 L 374.84181028236 926.92907738439 C 374.84181028236 926.92907738439 374.24181028236 922.72907738439 374.04181028236 917.32907738439 C 373.34181028236 917.02907738439 372.74181028236 916.42907738439 372.44181028236 915.72907738439 C 366.94181028236 915.52907738439 362.84181028236 914.92907738439 362.84181028236 914.92907738439 L 362.84181028236 914.12907738439 Z"/><path id="text" fill="#ffffff" transform="matrix(0.5249632611096303 0 0 0.5249632611096303 271.0886113610584 14.164202668291384)" d="M 266.1255295635 899.41828178281 L 298.5735295635 856.89028178281 L 267.0855295635 856.89028178281 L 267.0855295635 846.23428178281 L 317.0055295635 846.23428178281 L 317.0055295635 855.25828178281 L 284.5575295635 897.78628178281 L 317.5815295635 897.78628178281 L 317.5815295635 908.53828178281 L 266.1255295635 908.53828178281 L 266.1255295635 899.41828178281 Z M 327.7575295635 846.23428178281 L 353.0055295635 846.23428178281 C 358.9575295635 846.23428178281 363.5495295635 846.66628178281 366.7815295635 847.53028178281 C 370.0135295635 848.39428178281 372.3015295635 849.77028178281 373.6455295635 851.65828178281 C 374.9895295635 853.54628178281 375.6615295635 856.18628178281 375.6615295635 859.57828178281 L 375.6615295635 867.25828178281 C 375.6615295635 868.98628178281 374.9735295635 870.61828178281 373.5975295635 872.15428178281 C 372.2215295635 873.69028178281 370.6055295635 874.74628178281 368.7495295635 875.32228178281 L 368.7495295635 875.80228178281 C 371.1815295635 876.05828178281 373.4055295635 877.09828178281 375.4215295635 878.92228178281 C 377.4375295635 880.74628178281 378.4455295635 882.77828178281 378.4455295635 885.01828178281 L 378.4455295635 894.61828178281 C 378.4455295635 899.67428178281 376.4295295635 903.25828178281 372.3975295635 905.37028178281 C 368.3655295635 907.48228178281 362.1255295635 908.53828178281 353.6775295635 908.53828178281 L 327.7575295635 908.53828178281 L 327.7575295635 846.23428178281 Z M 353.0055295635 871.57828178281 C 355.3735295635 871.57828178281 357.1335295635 871.38628178281 358.2855295635 871.00228178281 C 359.4375295635 870.61828178281 360.2215295635 869.99428178281 360.6375295635 869.13028178281 C 361.0535295635 868.26628178281 361.2615295635 867.00228178281 361.2615295635 865.33828178281 L 361.2615295635 862.26628178281 C 361.2615295635 860.79428178281 361.0695295635 859.69028178281 360.6855295635 858.95428178281 C 360.3015295635 858.21828178281 359.5175295635 857.69028178281 358.3335295635 857.37028178281 C 357.1495295635 857.05028178281 355.2775295635 856.89028178281 352.7175295635 856.89028178281 L 342.7335295635 856.89028178281 L 342.7335295635 871.57828178281 L 353.0055295635 871.57828178281 Z M 353.3895295635 897.88228178281 C 357.0375295635 897.88228178281 359.6295295635 897.46628178281 361.1655295635 896.63428178281 C 362.7015295635 895.80228178281 363.4695295635 894.45828178281 363.4695295635 892.60228178281 L 363.4695295635 887.61028178281 C 363.4695295635 885.30628178281 362.8775295635 883.67428178281 361.6935295635 882.71428178281 C 360.5095295635 881.75428178281 358.4135295635 881.27428178281 355.4055295635 881.27428178281 L 342.7335295635 881.27428178281 L 342.7335295635 897.88228178281 L 353.3895295635 897.88228178281 Z M 405.2295295635 846.23428178281 L 423.4695295635 846.23428178281 L 445.9335295635 908.53828178281 L 430.7655295635 908.53828178281 L 425.1975295635 892.12228178281 L 402.4455295635 892.12228178281 L 396.9735295635 908.53828178281 L 382.1895295635 908.53828178281 L 405.2295295635 846.23428178281 Z M 421.9335295635 882.13828178281 L 414.0615295635 858.71428178281 L 413.6775295635 858.71428178281 L 405.8055295635 882.13828178281 L 421.9335295635 882.13828178281 Z M 472.8615295635 909.11428178281 C 470.6535295635 908.85828178281 468.2375295635 908.37828178281 465.6135295635 907.67428178281 C 462.6695295635 906.90628178281 460.2375295635 905.89828178281 458.3175295635 904.65028178281 C 456.3975295635 903.40228178281 454.7975295635 901.65828178281 453.5175295635 899.41828178281 C 452.1735295635 897.17828178281 451.5015295635 894.52228178281 451.5015295635 891.45028178281 L 451.5015295635 864.09028178281 C 451.5015295635 851.54628178281 461.1335295635 845.27428178281 480.3975295635 845.27428178281 C 485.3255295635 845.27428178281 491.9175295635 845.97828178281 500.1735295635 847.38628178281 L 500.1735295635 858.61828178281 C 492.7495295635 856.82628178281 486.2215295635 855.93028178281 480.5895295635 855.93028178281 C 478.2215295635 855.93028178281 476.3815295635 855.99428178281 475.0695295635 856.12228178281 C 473.7575295635 856.25028178281 472.3975295635 856.57028178281 470.9895295635 857.08228178281 C 467.9815295635 858.10628178281 466.4775295635 860.37828178281 466.4775295635 863.89828178281 L 466.4775295635 890.39428178281 C 466.4775295635 896.02628178281 471.6295295635 898.84228178281 481.9335295635 898.84228178281 C 486.3495295635 898.84228178281 492.5575295635 897.91428178281 500.5575295635 896.05828178281 L 500.5575295635 907.38628178281 C 493.7095295635 908.79428178281 486.9895295635 909.49828178281 480.3975295635 909.49828178281 C 477.5815295635 909.49828178281 475.0695295635 909.37028178281 472.8615295635 909.11428178281 Z M 510.1575295635 846.23428178281 L 525.1335295635 846.23428178281 L 525.1335295635 908.53828178281 L 510.1575295635 908.53828178281 L 510.1575295635 846.23428178281 Z M 525.5175295635 875.51428178281 L 548.8455295635 846.23428178281 L 566.4135295635 846.23428178281 L 542.7975295635 875.22628178281 L 569.0055295635 908.53828178281 L 550.7655295635 908.53828178281 L 525.5175295635 875.51428178281 Z M 575.6295295635 846.23428178281 L 624.1095295635 846.23428178281 L 624.1095295635 856.89028178281 L 590.6055295635 856.89028178281 L 590.6055295635 872.15428178281 L 620.9415295635 872.15428178281 L 620.9415295635 882.81028178281 L 590.6055295635 882.81028178281 L 590.6055295635 908.53828178281 L 575.6295295635 908.53828178281 L 575.6295295635 846.23428178281 Z M 633.9975295635 891.45028178281 L 633.9975295635 846.23428178281 L 648.9735295635 846.23428178281 L 648.9735295635 891.45028178281 C 648.9735295635 894.26628178281 649.8855295635 896.20228178281 651.7095295635 897.25828178281 C 653.5335295635 898.31428178281 656.6855295635 898.84228178281 661.1655295635 898.84228178281 C 665.5815295635 898.84228178281 668.6695295635 898.31428178281 670.4295295635 897.25828178281 C 672.1895295635 896.20228178281 673.0695295635 894.26628178281 673.0695295635 891.45028178281 L 673.0695295635 846.23428178281 L 688.0455295635 846.23428178281 L 688.0455295635 891.45028178281 C 688.0455295635 903.48228178281 679.0215295635 909.49828178281 660.9735295635 909.49828178281 C 642.9895295635 909.49828178281 633.9975295635 903.48228178281 633.9975295635 891.45028178281 Z M 701.2935295635 846.23428178281 L 729.3255295635 846.23428178281 C 737.6455295635 846.23428178281 743.6615295635 847.24228178281 747.3735295635 849.25828178281 C 751.0855295635 851.27428178281 752.9415295635 854.65028178281 752.9415295635 859.38628178281 L 752.9415295635 870.33028178281 C 752.9415295635 873.97828178281 751.6455295635 876.84228178281 749.0535295635 878.92228178281 C 746.4615295635 881.00228178281 743.0215295635 882.33028178281 738.7335295635 882.90628178281 L 756.7815295635 908.53828178281 L 739.5015295635 908.53828178281 L 723.1815295635 884.05828178281 L 716.2695295635 884.05828178281 L 716.2695295635 908.53828178281 L 701.2935295635 908.53828178281 L 701.2935295635 846.23428178281 Z M 729.1335295635 874.17028178281 C 732.6535295635 874.17028178281 735.0535295635 873.70628178281 736.3335295635 872.77828178281 C 737.6135295635 871.85028178281 738.2535295635 870.04228178281 738.2535295635 867.35428178281 L 738.2535295635 862.93828178281 C 738.2535295635 860.63428178281 737.5655295635 859.05028178281 736.1895295635 858.18628178281 C 734.8135295635 857.32228178281 732.4615295635 856.89028178281 729.1335295635 856.89028178281 L 716.2695295635 856.89028178281 L 716.2695295635 874.17028178281 L 729.1335295635 874.17028178281 Z M 765.4215295635 846.23428178281 L 780.5895295635 846.23428178281 L 810.7335295635 888.76228178281 L 810.7335295635 846.23428178281 L 824.0775295635 846.23428178281 L 824.0775295635 908.53828178281 L 808.9095295635 908.53828178281 L 778.7655295635 865.33828178281 L 778.7655295635 908.53828178281 L 765.4215295635 908.53828178281 L 765.4215295635 846.23428178281 Z M 837.5175295635 846.23428178281 L 852.4935295635 846.23428178281 L 852.4935295635 908.53828178281 L 837.5175295635 908.53828178281 L 837.5175295635 846.23428178281 Z M 880.3335295635 856.89028178281 L 861.1335295635 856.89028178281 L 861.1335295635 846.23428178281 L 914.4135295635 846.23428178281 L 914.4135295635 856.89028178281 L 895.3095295635 856.89028178281 L 895.3095295635 908.53828178281 L 880.3335295635 908.53828178281 L 880.3335295635 856.89028178281 Z M 922.8615295635 891.45028178281 L 922.8615295635 846.23428178281 L 937.8375295635 846.23428178281 L 937.8375295635 891.45028178281 C 937.8375295635 894.26628178281 938.7495295635 896.20228178281 940.5735295635 897.25828178281 C 942.3975295635 898.31428178281 945.5495295635 898.84228178281 950.0295295635 898.84228178281 C 954.4455295635 898.84228178281 957.5335295635 898.31428178281 959.2935295635 897.25828178281 C 961.0535295635 896.20228178281 961.9335295635 894.26628178281 961.9335295635 891.45028178281 L 961.9335295635 846.23428178281 L 976.9095295635 846.23428178281 L 976.9095295635 891.45028178281 C 976.9095295635 903.48228178281 967.8855295635 909.49828178281 949.8375295635 909.49828178281 C 931.8535295635 909.49828178281 922.8615295635 903.48228178281 922.8615295635 891.45028178281 Z M 990.1575295635 846.23428178281 L 1018.1895295635 846.23428178281 C 1026.5095295635 846.23428178281 1032.5255295635 847.24228178281 1036.2375295635 849.25828178281 C 1039.9495295635 851.27428178281 1041.8055295635 854.65028178281 1041.8055295635 859.38628178281 L 1041.8055295635 870.33028178281 C 1041.8055295635 873.97828178281 1040.5095295635 876.84228178281 1037.9175295635 878.92228178281 C 1035.3255295635 881.00228178281 1031.8855295635 882.33028178281 1027.5975295635 882.90628178281 L 1045.6455295635 908.53828178281 L 1028.3655295635 908.53828178281 L 1012.0455295635 884.05828178281 L 1005.1335295635 884.05828178281 L 1005.1335295635 908.53828178281 L 990.1575295635 908.53828178281 L 990.1575295635 846.23428178281 Z M 1017.9975295635 874.17028178281 C 1021.5175295635 874.17028178281 1023.9175295635 873.70628178281 1025.1975295635 872.77828178281 C 1026.4775295635 871.85028178281 1027.1175295635 870.04228178281 1027.1175295635 867.35428178281 L 1027.1175295635 862.93828178281 C 1027.1175295635 860.63428178281 1026.4295295635 859.05028178281 1025.0535295635 858.18628178281 C 1023.6775295635 857.32228178281 1021.3255295635 856.89028178281 1017.9975295635 856.89028178281 L 1005.1335295635 856.89028178281 L 1005.1335295635 874.17028178281 L 1017.9975295635 874.17028178281 Z M 1054.2855295635 846.23428178281 L 1101.8055295635 846.23428178281 L 1101.8055295635 856.89028178281 L 1069.2615295635 856.89028178281 L 1069.2615295635 871.19428178281 L 1098.6375295635 871.19428178281 L 1098.6375295635 881.85028178281 L 1069.2615295635 881.85028178281 L 1069.2615295635 897.88228178281 L 1102.7655295635 897.88228178281 L 1102.7655295635 908.53828178281 L 1054.2855295635 908.53828178281 L 1054.2855295635 846.23428178281 Z"/><path id="text" fill="#ffffff" transform="matrix(0.26248163055481516 0 0 0.26248163055481516 270.98781841492536 64.89665222192605)" d="M 532.63505912699 1754.77256356562 L 541.94705912699 1754.77256356562 L 541.94705912699 1810.54856356562 L 572.57105912699 1810.54856356562 L 572.57105912699 1817.07656356562 L 532.63505912699 1817.07656356562 L 532.63505912699 1754.77256356562 Z M 602.76305912699 1817.36456356562 C 600.23505912699 1816.91656356562 597.75505912699 1816.14856356562 595.32305912699 1815.06056356562 C 592.76305912699 1813.90856356562 590.79505912699 1812.14856356562 589.41905912699 1809.78056356562 C 588.04305912699 1807.41256356562 587.35505912699 1804.53256356562 587.35505912699 1801.14056356562 L 587.35505912699 1754.77256356562 L 596.28305912699 1754.77256356562 L 596.28305912699 1801.04456356562 C 596.28305912699 1804.94856356562 597.59505912699 1807.71656356562 600.21905912699 1809.34856356562 C 602.84305912699 1810.98056356562 606.71505912699 1811.79656356562 611.83505912699 1811.79656356562 C 616.95505912699 1811.79656356562 620.77905912699 1810.98056356562 623.30705912699 1809.34856356562 C 625.83505912699 1807.71656356562 627.09905912699 1804.94856356562 627.09905912699 1801.04456356562 L 627.09905912699 1754.77256356562 L 636.02705912699 1754.77256356562 L 636.02705912699 1801.14056356562 C 636.02705912699 1812.40456356562 627.89905912699 1818.03656356562 611.64305912699 1818.03656356562 C 608.25105912699 1818.03656356562 605.29105912699 1817.81256356562 602.76305912699 1817.36456356562 Z M 672.69905912699 1785.30056356562 L 650.71505912699 1754.77256356562 L 661.37105912699 1754.77256356562 L 677.97905912699 1778.86856356562 L 694.58705912699 1754.77256356562 L 705.24305912699 1754.77256356562 L 683.25905912699 1785.30056356562 L 706.20305912699 1817.07656356562 L 695.54705912699 1817.07656356562 L 677.97905912699 1791.73256356562 L 660.41105912699 1817.07656356562 L 649.75505912699 1817.07656356562 L 672.69905912699 1785.30056356562 Z M 735.24305912699 1817.36456356562 C 732.71505912699 1816.91656356562 730.23505912699 1816.14856356562 727.80305912699 1815.06056356562 C 725.24305912699 1813.90856356562 723.27505912699 1812.14856356562 721.89905912699 1809.78056356562 C 720.52305912699 1807.41256356562 719.83505912699 1804.53256356562 719.83505912699 1801.14056356562 L 719.83505912699 1754.77256356562 L 728.76305912699 1754.77256356562 L 728.76305912699 1801.04456356562 C 728.76305912699 1804.94856356562 730.07505912699 1807.71656356562 732.69905912699 1809.34856356562 C 735.32305912699 1810.98056356562 739.19505912699 1811.79656356562 744.31505912699 1811.79656356562 C 749.43505912699 1811.79656356562 753.25905912699 1810.98056356562 755.78705912699 1809.34856356562 C 758.31505912699 1807.71656356562 759.57905912699 1804.94856356562 759.57905912699 1801.04456356562 L 759.57905912699 1754.77256356562 L 768.50705912699 1754.77256356562 L 768.50705912699 1801.14056356562 C 768.50705912699 1812.40456356562 760.37905912699 1818.03656356562 744.12305912699 1818.03656356562 C 740.73105912699 1818.03656356562 737.77105912699 1817.81256356562 735.24305912699 1817.36456356562 Z M 789.53105912699 1754.77256356562 L 811.41905912699 1754.77256356562 C 816.92305912699 1754.77256356562 821.22705912699 1755.10856356562 824.33105912699 1755.78056356562 C 827.43505912699 1756.45256356562 829.70705912699 1757.65256356562 831.14705912699 1759.38056356562 C 832.58705912699 1761.10856356562 833.30705912699 1763.63656356562 833.30705912699 1766.96456356562 L 833.30705912699 1777.71656356562 C 833.30705912699 1781.42856356562 831.78705912699 1784.29256356562 828.74705912699 1786.30856356562 C 825.70705912699 1788.32456356562 821.85105912699 1789.33256356562 817.17905912699 1789.33256356562 L 837.14705912699 1817.07656356562 L 825.72305912699 1817.07656356562 L 807.86705912699 1790.48456356562 L 798.84305912699 1790.48456356562 L 798.84305912699 1817.07656356562 L 789.53105912699 1817.07656356562 L 789.53105912699 1754.77256356562 Z M 811.03505912699 1784.34056356562 C 815.64305912699 1784.34056356562 818.95505912699 1783.78056356562 820.97105912699 1782.66056356562 C 822.98705912699 1781.54056356562 823.99505912699 1779.50856356562 823.99505912699 1776.56456356562 L 823.99505912699 1767.92456356562 C 823.99505912699 1763.25256356562 819.96305912699 1760.91656356562 811.89905912699 1760.91656356562 L 798.84305912699 1760.91656356562 L 798.84305912699 1784.34056356562 L 811.03505912699 1784.34056356562 Z M 870.26705912699 1791.92456356562 L 847.70705912699 1754.77256356562 L 858.36305912699 1754.77256356562 L 874.97105912699 1784.05256356562 L 891.57905912699 1754.77256356562 L 902.23505912699 1754.77256356562 L 879.57905912699 1791.63656356562 L 879.57905912699 1817.07656356562 L 870.26705912699 1817.07656356562 L 870.26705912699 1791.92456356562 Z M 960.89105912699 1754.77256356562 L 971.64305912699 1754.77256356562 L 995.83505912699 1817.07656356562 L 986.13905912699 1817.07656356562 L 979.03505912699 1798.16456356562 L 952.34705912699 1798.16456356562 L 945.33905912699 1817.07656356562 L 936.12305912699 1817.07656356562 L 960.89105912699 1754.77256356562 Z M 976.73105912699 1791.73256356562 L 966.17105912699 1763.60456356562 L 965.30705912699 1763.60456356562 L 954.74705912699 1791.73256356562 L 976.73105912699 1791.73256356562 Z M 1010.13905912699 1754.77256356562 L 1021.37105912699 1754.77256356562 L 1055.25905912699 1806.22856356562 L 1055.25905912699 1754.77256356562 L 1063.41905912699 1754.77256356562 L 1063.41905912699 1817.07656356562 L 1052.18705912699 1817.07656356562 L 1018.29905912699 1764.75656356562 L 1018.29905912699 1817.07656356562 L 1010.13905912699 1817.07656356562 L 1010.13905912699 1754.77256356562 Z M 1084.34705912699 1754.77256356562 L 1109.11505912699 1754.77256356562 C 1126.58705912699 1754.77256356562 1135.32305912699 1760.72456356562 1135.32305912699 1772.62856356562 L 1135.32305912699 1800.18056356562 C 1135.32305912699 1811.44456356562 1126.61905912699 1817.07656356562 1109.21105912699 1817.07656356562 L 1084.34705912699 1817.07656356562 L 1084.34705912699 1754.77256356562 Z M 1108.53905912699 1810.74056356562 C 1120.44305912699 1810.74056356562 1126.39505912699 1807.15656356562 1126.39505912699 1799.98856356562 L 1126.39505912699 1772.53256356562 C 1126.39505912699 1770.22856356562 1125.91505912699 1768.27656356562 1124.95505912699 1766.67656356562 C 1123.99505912699 1765.07656356562 1122.65105912699 1763.89256356562 1120.92305912699 1763.12456356562 C 1119.19505912699 1762.42056356562 1117.40305912699 1761.92456356562 1115.54705912699 1761.63656356562 C 1113.69105912699 1761.34856356562 1111.51505912699 1761.20456356562 1109.01905912699 1761.20456356562 L 1093.65905912699 1761.20456356562 L 1093.65905912699 1810.74056356562 L 1108.53905912699 1810.74056356562 Z M 1199.35505912699 1754.77256356562 L 1210.10705912699 1754.77256356562 L 1234.29905912699 1817.07656356562 L 1224.60305912699 1817.07656356562 L 1217.49905912699 1798.16456356562 L 1190.81105912699 1798.16456356562 L 1183.80305912699 1817.07656356562 L 1174.58705912699 1817.07656356562 L 1199.35505912699 1754.77256356562 Z M 1215.19505912699 1791.73256356562 L 1204.63505912699 1763.60456356562 L 1203.77105912699 1763.60456356562 L 1193.21105912699 1791.73256356562 L 1215.19505912699 1791.73256356562 Z M 1248.60305912699 1754.77256356562 L 1262.52305912699 1754.77256356562 L 1282.49105912699 1806.61256356562 L 1282.77905912699 1806.70856356562 L 1301.69105912699 1754.77256356562 L 1315.13105912699 1754.77256356562 L 1315.13105912699 1817.07656356562 L 1306.97105912699 1817.07656356562 L 1306.97105912699 1764.37256356562 L 1306.49105912699 1764.37256356562 L 1286.42705912699 1817.07656356562 L 1278.07505912699 1817.07656356562 L 1257.43505912699 1764.37256356562 L 1256.95505912699 1764.37256356562 L 1256.95505912699 1817.07656356562 L 1248.60305912699 1817.07656356562 L 1248.60305912699 1754.77256356562 Z M 1336.05905912699 1754.77256356562 L 1358.33105912699 1754.77256356562 C 1363.64305912699 1754.77256356562 1367.86705912699 1755.31656356562 1371.00305912699 1756.40456356562 C 1373.88305912699 1757.42856356562 1375.81905912699 1758.70856356562 1376.81105912699 1760.24456356562 C 1377.80305912699 1761.78056356562 1378.29905912699 1763.89256356562 1378.29905912699 1766.58056356562 L 1378.29905912699 1774.93256356562 C 1378.29905912699 1777.42856356562 1377.59505912699 1779.36456356562 1376.18705912699 1780.74056356562 C 1374.77905912699 1782.11656356562 1372.63505912699 1783.12456356562 1369.75505912699 1783.76456356562 L 1369.75505912699 1784.14856356562 C 1373.14705912699 1784.72456356562 1375.88305912699 1785.89256356562 1377.96305912699 1787.65256356562 C 1380.04305912699 1789.41256356562 1381.08305912699 1791.60456356562 1381.08305912699 1794.22856356562 L 1381.08305912699 1804.69256356562 C 1381.08305912699 1809.23656356562 1379.38705912699 1812.43656356562 1375.99505912699 1814.29256356562 C 1372.60305912699 1816.14856356562 1366.93905912699 1817.07656356562 1359.00305912699 1817.07656356562 L 1336.05905912699 1817.07656356562 L 1336.05905912699 1754.77256356562 Z M 1358.61905912699 1782.03656356562 C 1362.52305912699 1782.03656356562 1365.32305912699 1781.44456356562 1367.01905912699 1780.26056356562 C 1368.71505912699 1779.07656356562 1369.56305912699 1777.20456356562 1369.56305912699 1774.64456356562 L 1369.56305912699 1767.34856356562 C 1369.56305912699 1764.98056356562 1368.69905912699 1763.31656356562 1366.97105912699 1762.35656356562 C 1365.24305912699 1761.39656356562 1362.36305912699 1760.91656356562 1358.33105912699 1760.91656356562 L 1345.37105912699 1760.91656356562 L 1345.37105912699 1782.03656356562 L 1358.61905912699 1782.03656356562 Z M 1359.00305912699 1810.64456356562 C 1363.67505912699 1810.64456356562 1366.97105912699 1810.16456356562 1368.89105912699 1809.20456356562 C 1370.81105912699 1808.24456356562 1371.77105912699 1806.61256356562 1371.77105912699 1804.30856356562 L 1371.77105912699 1794.90056356562 C 1371.77105912699 1793.23656356562 1371.43505912699 1791.90856356562 1370.76305912699 1790.91656356562 C 1370.09105912699 1789.92456356562 1369.05105912699 1789.20456356562 1367.64305912699 1788.75656356562 C 1366.23505912699 1788.37256356562 1364.98705912699 1788.13256356562 1363.89905912699 1788.03656356562 C 1362.81105912699 1787.94056356562 1361.17905912699 1787.89256356562 1359.00305912699 1787.89256356562 L 1345.37105912699 1787.89256356562 L 1345.37105912699 1810.64456356562 L 1359.00305912699 1810.64456356562 Z M 1399.70705912699 1754.77256356562 L 1409.01905912699 1754.77256356562 L 1409.01905912699 1817.07656356562 L 1399.70705912699 1817.07656356562 L 1399.70705912699 1754.77256356562 Z M 1429.94705912699 1754.77256356562 L 1471.80305912699 1754.77256356562 L 1471.80305912699 1761.30056356562 L 1439.25905912699 1761.30056356562 L 1439.25905912699 1781.65256356562 L 1468.63505912699 1781.65256356562 L 1468.63505912699 1788.18056356562 L 1439.25905912699 1788.18056356562 L 1439.25905912699 1810.54856356562 L 1472.76305912699 1810.54856356562 L 1472.76305912699 1817.07656356562 L 1429.94705912699 1817.07656356562 L 1429.94705912699 1754.77256356562 Z M 1490.42705912699 1754.77256356562 L 1501.65905912699 1754.77256356562 L 1535.54705912699 1806.22856356562 L 1535.54705912699 1754.77256356562 L 1543.70705912699 1754.77256356562 L 1543.70705912699 1817.07656356562 L 1532.47505912699 1817.07656356562 L 1498.58705912699 1764.75656356562 L 1498.58705912699 1817.07656356562 L 1490.42705912699 1817.07656356562 L 1490.42705912699 1754.77256356562 Z M 1562.71505912699 1801.14056356562 L 1562.71505912699 1771.57256356562 C 1562.71505912699 1759.66856356562 1571.45105912699 1753.71656356562 1588.92305912699 1753.71656356562 C 1594.87505912699 1753.71656356562 1600.57105912699 1754.32456356562 1606.01105912699 1755.54056356562 L 1606.01105912699 1762.45256356562 C 1599.86705912699 1760.91656356562 1594.23505912699 1760.14856356562 1589.11505912699 1760.14856356562 C 1586.61905912699 1760.14856356562 1584.44305912699 1760.29256356562 1582.58705912699 1760.58056356562 C 1580.73105912699 1760.86856356562 1578.93905912699 1761.36456356562 1577.21105912699 1762.06856356562 C 1573.49905912699 1763.66856356562 1571.64305912699 1766.80456356562 1571.64305912699 1771.47656356562 L 1571.64305912699 1800.66056356562 C 1571.64305912699 1807.82856356562 1577.59505912699 1811.41256356562 1589.49905912699 1811.41256356562 C 1594.61905912699 1811.41256356562 1600.25105912699 1810.64456356562 1606.39505912699 1809.10856356562 L 1606.39505912699 1816.21256356562 C 1600.95505912699 1817.42856356562 1595.13105912699 1818.03656356562 1588.92305912699 1818.03656356562 C 1571.45105912699 1818.03656356562 1562.71505912699 1812.40456356562 1562.71505912699 1801.14056356562 Z M 1623.57905912699 1754.77256356562 L 1665.43505912699 1754.77256356562 L 1665.43505912699 1761.30056356562 L 1632.89105912699 1761.30056356562 L 1632.89105912699 1781.65256356562 L 1662.26705912699 1781.65256356562 L 1662.26705912699 1788.18056356562 L 1632.89105912699 1788.18056356562 L 1632.89105912699 1810.54856356562 L 1666.39505912699 1810.54856356562 L 1666.39505912699 1817.07656356562 L 1623.57905912699 1817.07656356562 L 1623.57905912699 1754.77256356562 Z"/></svg>